# xmcd
#
# Track frame offsets:
# 150
# 13547
# 27768
# 39946
# 54768
# 64848
# 78016
# 93415
# 107602
# 118589
# 131327
# 145343
# 156100
# 170108
# 181418
# 194836
# 204763
# 215302
#
# Disc length: 3043 seconds
#
# Revision: 1
# Processed by: cddbd v1.5.1PL0 Copyright (c) Steve Scherf et al.
# Submitted via: CedeCatalogueitor 2.6.0.6 http://personales.ya.com/cdcatalogueitor
#
DISCID=e90be112
DTITLE=Trio Calaveras - El Disco De Oro
DYEAR=1998
DGENRE=
TTITLE0=El Limpiabotas
TTITLE1=Rosita
TTITLE2=El Cuervo
TTITLE3=Juan Charrasqueado
TTITLE4=El Jaripeo
TTITLE5=Las Flores
TTITLE6=Plegaria Guadalupana
TTITLE7=El Tamalero
TTITLE8=Caña Brava
TTITLE9=María Bonita
TTITLE10=Flor Silvestre
TTITLE11=El Pajaro Cu
TTITLE12=Cuatro Caminos
TTITLE13=Ella
TTITLE14=Veracruz
TTITLE15=Fiesta Ranchera
TTITLE16=La Que Se Fué
TTITLE17=Corazon Mexicano
EXTD=
EXTT0=
EXTT1=
EXTT2=
EXTT3=
EXTT4=
EXTT5=
EXTT6=
EXTT7=
EXTT8=
EXTT9=
EXTT10=
EXTT11=
EXTT12=
EXTT13=
EXTT14=
EXTT15=
EXTT16=
EXTT17=
PLAYORDER=
